#!OML:ASF \\Waltz\H\Terrain\Patient Classification 1\Animal2\Wednesday\Animal2.ASF
:FULLY-SPECIFIED
:DEGREES
1251
root 4.77971 16.2802 -19.2799 377.661 -176.317 -357.141
lowerback 12.1359 -2.53546 3.009
upperback -3.69532 -2.81339 1.28095
thorax -10.9257 -1.50709 0.297893
lowerneck 1.90616 8.1258 15.6373
upperneck -12.4482 10.7596 -22.5675
head -1.65463 6.14103 -9.73321
rclavicle 1.90336e-014 -5.36719e-015
rhumerus -39.0339 61.3138 -77.8491
rradius 72.0423
rwrist 29.5087
rhand 12.7792 33.6069
rfingers 7.12502
rthumb 37.7573 7.74207
lclavicle 1.90336e-014 -5.36719e-015
lhumerus -73.2561 -54.8078 98.6081
lradius 35.4452
lwrist -13.485
lhand -9.32939 -1.0789
lfingers 7.12502
lthumb 16.6293 28.2287
rfemur -41.2012 -18.8136 29.606
rtibia 59.2586
rfoot -36.4933 -6.73251
rtoes 26.8243
lfemur -50.4853 21.0965 -24.6846
ltibia 61.5116
lfoot -28.9728 -5.62959
ltoes 2.16729
1252
root 4.77651 16.232 -19.2877 377.49 -176.545 -357.627
lowerback 11.9835 -2.56444 2.50702
upperback -3.71301 -2.94886 1.13668
thorax -10.8371 -1.54207 0.444808
lowerneck 1.77914 8.26476 15.7053
upperneck -11.8322 10.9689 -22.4956
head -1.41846 6.19879 -9.66768
rclavicle 3.79182e-014 -1.27222e-014
rhumerus -40.3176 60.7321 -79.5559
rradius 71.262
rwrist 30.177
rhand 13.3598 33.6076
rfingers 7.12502
rthumb 38.3056 7.89218
lclavicle 3.79182e-014 -1.27222e-014
lhumerus -72.8713 -54.8394 98.8226
lradius 35.6419
lwrist -13.8604
lhand -9.04836 -0.602154
lfingers 7.12502
lthumb 16.8999 28.6825
rfemur -41.3763 -19.0262 28.9763
rtibia 60.0808
rfoot -36.8384 -6.43182
rtoes 27.5776
lfemur -50.5077 21.0521 -25.0141
ltibia 62.2276
lfoot -28.5772 -8.21834
ltoes 12.4635
1253
root 4.77364 16.1869 -19.2988 377.182 -176.549 -357.732
lowerback 11.8655 -2.66084 2.5671
upperback -3.71877 -3.08405 1.0002
thorax -10.7877 -1.61562 0.286951
lowerneck 1.947 8.4003 15.9015
upperneck -11.4935 11.186 -22.4744
head -1.29813 6.28023 -9.67166
rclavicle -4.96962e-016 -1.39149e-014
rhumerus -42.0221 59.7843 -81.6364
rradius 70.6739
rwrist 30.8889
rhand 13.1723 33.517
rfingers 7.12502
rthumb 38.1286 7.75286
lclavicle -4.96962e-016 -1.39149e-014
lhumerus -72.6132 -54.857 98.9134
lradius 36.009
lwrist -13.562
lhand -9.15674 -0.10184
lfingers 7.12502
lthumb 16.7956 29.1917
rfemur -41.2065 -19.2107 28.7648
rtibia 60.5049
rfoot -37.0354 -6.41234
rtoes 27.8678
lfemur -50.2831 20.8863 -24.8522
ltibia 62.7356
lfoot -28.3507 -9.78208
ltoes 18.3604
1254
root 4.76776 16.1668 -19.3163 376.925 -176.38 -357.44
lowerback 11.6586 -2.76762 3.16213
upperback -3.82161 -3.14783 0.965616
thorax -10.8205 -1.69118 -0.0752898
lowerneck 2.38444 8.3837 15.8382
upperneck -11.3031 11.2059 -22.2899
head -1.3341 6.28252 -9.61569
rclavicle 3.94588e-014 9.93923e-015
rhumerus -44.0827 58.5148 -83.7721
rradius 70.2547
rwrist 31.9594
rhand 12.7125 33.8369
rfingers 7.12502
rthumb 37.6943 7.95511
lclavicle 3.94588e-014 9.93923e-015
lhumerus -71.9985 -54.5188 98.4802
lradius 36.4921
lwrist -13.4364
lhand -9.09886 0.186965
lfingers 7.12502
lthumb 16.8513 29.4758
rfemur -40.9125 -19.3686 29.0316
rtibia 60.6224
rfoot -37.135 -7.10862
rtoes 25.9574
lfemur -50.1522 20.6898 -24.3475
ltibia 63.0664
lfoot -28.5341 -9.43044
ltoes 17.632
1255
root 4.76341 16.2126 -19.3546 376.739 -176.278 -357.418
lowerback 11.3034 -2.8186 3.43522
upperback -3.92765 -3.19944 0.889808
thorax -10.7519 -1.74119 -0.312258
lowerneck 2.52001 8.37543 15.7314
upperneck -10.8984 11.2257 -22.0485
head -1.26482 6.26607 -9.50569
rclavicle -1.64494e-014 -1.55052e-014
rhumerus -46.2748 57.3373 -85.8541
rradius 69.848
rwrist 32.2203
rhand 11.7335 33.8696
rfingers 7.12502
rthumb 36.7686 7.74567
lclavicle -1.64494e-014 -1.55052e-014
lhumerus -70.8125 -53.8829 97.4384
lradius 37.0483
lwrist -13.7617
lhand -8.88713 0.523773
lfingers 7.12502
lthumb 17.0551 29.7951
rfemur -40.3003 -19.4193 28.9537
rtibia 60.3354
rfoot -37.1474 -7.77111
rtoes 24.3466
lfemur -49.7838 20.6005 -24.2908
ltibia 62.9312
lfoot -29.1559 -6.82821
ltoes 8.09373
1256
root 4.76312 16.2208 -19.3982 376.403 -176.26 -357.662
lowerback 11.0865 -2.83151 3.20695
upperback -3.95351 -3.26418 0.866117
thorax -10.641 -1.75861 -0.207147
lowerneck 2.29153 8.48351 15.7312
upperneck -10.2347 11.3997 -21.9536
head -1.01209 6.3106 -9.41851
rclavicle -2.50966e-014 -1.78906e-015
rhumerus -48.7351 56.4484 -88.0167
rradius 69.4535
rwrist 30.9041
rhand 17.6621 34.7618
rfingers 7.12502
rthumb 42.3512 10.2905
lclavicle -2.50966e-014 -1.78906e-015
lhumerus -69.8424 -53.4485 96.9496
lradius 37.5881
lwrist -13.5369
lhand -9.2897 0.912953
lfingers 7.12502
lthumb 16.6676 30.2173
rfemur -39.5828 -19.3295 28.4857
rtibia 60.1072
rfoot -37.1874 -7.74478
rtoes 25.2083
lfemur -49.1924 20.5034 -24.4362
ltibia 62.7086
lfoot -29.5366 -4.40268
ltoes -1.50751
1257
root 4.75723 16.2345 -19.4494 375.827 -176.378 -357.899
lowerback 11.0878 -2.79803 2.91849
upperback -3.99875 -3.26123 0.893562
thorax -10.6716 -1.7377 -0.0153382
lowerneck 2.42463 8.54224 15.7375
upperneck -9.72224 11.5412 -22.0501
head -0.855107 6.37137 -9.42737
rclavicle -5.18331e-014 6.36111e-015
rhumerus -49.8385 54.6754 -88.3711
rradius 69.6598
rwrist 34.3214
rhand 13.5678 35.3632
rfingers 7.12502
rthumb 38.5019 9.70226
lclavicle -5.18331e-014 6.36111e-015
lhumerus -69.3944 -53.1888 97.1837
lradius 38.1052
lwrist -12.8838
lhand -9.85135 0.999549
lfingers 7.12502
lthumb 16.1268 30.3486
rfemur -38.4904 -19.2018 27.8652
rtibia 59.7395
rfoot -37.1345 -7.84219
rtoes 25.5402
lfemur -47.9492 20.3519 -24.3608
ltibia 62.2309
lfoot -29.7913 -3.65738
ltoes -4.85328
1258
root 4.74483 16.2627 -19.507 375.266 -176.564 -358.116
lowerback 10.9322 -2.74029 2.72394
upperback -4.06169 -3.22252 0.878649
thorax -10.6366 -1.70875 0.063757
lowerneck 2.9836 8.45736 15.6193
upperneck -9.55329 11.498 -22.0932
head -0.91608 6.37199 -9.45216
rclavicle -5.11871e-014 1.5704e-014
rhumerus -52.8292 53.9945 -90.793
rradius 69.2473
rwrist 32.1041
rhand 12.678 33.5951
rfingers 7.12502
rthumb 37.6617 7.70459
lclavicle -5.11871e-014 1.5704e-014
lhumerus -69.1128 -52.8218 97.4891
lradius 38.7003
lwrist -12.3244
lhand -10.2589 1.01711
lfingers 7.12502
lthumb 15.7344 30.3975
rfemur -37.288 -19.0753 27.2266
rtibia 59.2762
rfoot -37.1889 -8.18952
rtoes 24.8892
lfemur -46.5593 20.1667 -24.2213
ltibia 61.6893
lfoot -30 -3.54912
ltoes -5.5515
1259
root 4.73264 16.3067 -19.5729 374.814 -176.642 -358.401
lowerback 10.3606 -2.77329 2.51619
upperback -3.95603 -3.32423 0.804228
thorax -10.174 -1.74674 0.0855736
lowerneck 3.21445 8.49235 15.5158
upperneck -9.43677 11.573 -21.9746
head -0.924284 6.4093 -9.39991
rclavicle 6.78353e-015 -4.17448e-015
rhumerus -54.6923 53.26 -92.38
rradius 68.9219
rwrist 31.0349
rhand 11.3461 32.7117
rfingers 7.12502
rthumb 36.4019 6.495
lclavicle 6.78353e-015 -4.17448e-015
lhumerus -68.7601 -52.5373 97.5632
lradius 39.5345
lwrist -11.7601
lhand -10.6005 1.3566
lfingers 7.12502
lthumb 15.4053 30.7626
rfemur -36.1155 -19.1465 26.5784
rtibia 58.7065
rfoot -37.2179 -8.33156
rtoes 25.1939
lfemur -45.2591 19.8178 -24.1632
ltibia 61.1333
lfoot -30.143 -2.97513
ltoes -7.57135
1260
root 4.7296 16.3486 -19.6454 374.238 -176.702 -358.403
lowerback 9.76115 -2.82245 2.50668
upperback -3.74639 -3.41077 0.808108
thorax -9.59007 -1.78649 0.0706783
lowerneck 3.12767 8.69147 15.332
upperneck -9.05319 11.8538 -21.6485
head -0.785002 6.51648 -9.2216
rclavicle 3.78188e-014 3.18055e-015
rhumerus -56.1789 52.4868 -93.6537
rradius 68.7279
rwrist 30.7223
rhand 11.1695 32.4496
rfingers 7.12502
rthumb 36.2347 6.19112
lclavicle 3.78188e-014 3.18055e-015
lhumerus -68.9382 -52.7592 98.2772
lradius 40.3424
lwrist -10.7006
lhand -10.948 1.5648
lfingers 7.12502
lthumb 15.0706 30.9962
rfemur -34.7007 -19.013 26.2382
rtibia 57.9218
rfoot -36.9109 -8.79225
rtoes 25.1861
lfemur -43.7918 19.4816 -23.6667
ltibia 60.4882
lfoot -30.0682 -3.47119
ltoes -4.56134
1261
root 4.7403 16.3474 -19.7039 373.517 -176.823 -357.97
lowerback 9.57541 -2.78889 2.74464
upperback -3.68825 -3.33071 0.977704
thorax -9.41951 -1.7579 0.0920529
lowerneck 3.26094 8.78046 15.1806
upperneck -8.53712 12.026 -21.4324
head -0.656813 6.58065 -9.10165
rclavicle 1.51076e-014 1.5704e-014
rhumerus -58.2206 51.7683 -95.242
rradius 68.6134
rwrist 30.4705
rhand 14.04 32.3403
rfingers 7.12502
rthumb 38.9473 6.8052
lclavicle 1.51076e-014 1.5704e-014
lhumerus -69.5531 -53.0086 99.4798
lradius 41.0981
lwrist -9.71218
lhand -11.0828 1.28188
lfingers 7.12502
lthumb 14.9407 30.723
rfemur -33.2579 -18.271 26.4149
rtibia 57.1194
rfoot -36.4888 -9.71334
rtoes 24.0269
lfemur -42.4254 19.4253 -22.6424
ltibia 59.916
lfoot -29.5472 -4.79732
ltoes 1.53129
1262
root 4.74977 16.417 -19.7758 372.819 -176.92 -357.874
lowerback 9.71875 -2.82885 2.67967
upperback -3.97915 -3.38915 1.04273
thorax -9.81695 -1.78651 0.228636
lowerneck 3.6635 8.79375 15.256
upperneck -7.64741 12.1652 -21.2191
head -0.460575 6.61816 -9.02556
rclavicle 2.53699e-014 8.54774e-015
rhumerus -61.1522 51.2265 -97.6245
rradius 68.4811
rwrist 30.2283
rhand 12.0065 32.02
rfingers 7.12502
rthumb 37.0269 5.96245
lclavicle 2.53699e-014 8.54774e-015
lhumerus -70.282 -52.2464 100.036
lradius 42.2706
lwrist -9.92752
lhand -10.6739 0.918531
lfingers 7.12502
lthumb 15.3346 30.33
rfemur -31.5358 -17.6941 26.2101
rtibia 55.9827
rfoot -36.3312 -10.0278
rtoes 23.9813
lfemur -40.68 19.3235 -22.0434
ltibia 58.9328
lfoot -29.0715 -4.80705
ltoes 1.93524
1263
root 4.748 16.4953 -19.8588 372.263 -176.838 -358.109
lowerback 9.54084 -2.9481 2.52001
upperback -4.30474 -3.59527 0.939758
thorax -10.0722 -1.88749 0.250291
lowerneck 4.02858 8.83256 15.3149
upperneck -6.60133 12.3402 -20.6936
head -0.232068 6.65433 -8.8372
rclavicle 2.27111e-014 -7.05686e-015
rhumerus -63.9942 50.557 -99.9668
rradius 68.3812
rwrist 30.104
rhand 13.3606 32.2139
rfingers 7.12502
rthumb 38.3063 6.49868
lclavicle 2.27111e-014 -7.05686e-015
lhumerus -71.1256 -51.3335 100.356
lradius 43.609
lwrist -10.7434
lhand -10.2023 0.811167
lfingers 7.12502
lthumb 15.7888 30.1873
rfemur -29.8104 -17.6853 25.6179
rtibia 54.7619
rfoot -36.3035 -9.46606
rtoes 25.3576
lfemur -38.9177 18.953 -21.8772
ltibia 57.8032
lfoot -28.7698 -4.35043
ltoes 0.642254
1264
root 4.74708 16.5744 -19.9411 371.649 -176.704 -358.311
lowerback 8.83199 -3.02007 2.41485
upperback -4.20883 -3.74183 0.801247
thorax -9.55261 -1.95834 0.141695
lowerneck 4.33567 8.86253 15.4215
upperneck -6.09304 12.453 -20.342
head -0.13978 6.68534 -8.73454
rclavicle 2.1593e-014 2.5842e-015
rhumerus -65.822 49.9011 -101.498
rradius 68.3738
rwrist 29.9294
rhand 13.7602 32.2309
rfingers 7.12502
rthumb 38.6834 6.62095
lclavicle 2.1593e-014 2.5842e-015
lhumerus -71.5212 -51.3633 100.829
lradius 44.674
lwrist -10.8413
lhand -10.9098 1.02311
lfingers 7.12502
lthumb 15.1074 30.4518
rfemur -27.9202 -17.6986 25.0384
rtibia 53.3502
rfoot -35.7623 -8.62007
rtoes 27.3056
lfemur -37.0411 18.6552 -21.6633
ltibia 56.4493
lfoot -28.1208 -4.76254
ltoes 2.49115
